<?xml version="1.0" standalone="no"?>
<!DOCTYPE svg PUBLIC "-//W3C//DTD SVG 20010904//EN"
 "http://www.w3.org/TR/2001/REC-SVG-20010904/DTD/svg10.dtd">
<svg version="1.0" xmlns="http://www.w3.org/2000/svg"
 width="425.000000pt" height="425.000000pt" viewBox="0 0 425.000000 425.000000"
 preserveAspectRatio="xMidYMid meet">
<metadata>
Created by potrace 1.11, written by Peter Selinger 2001-2013
</metadata>
<g transform="translate(0.000000,425.000000) scale(0.100000,-0.100000)"
fill="#000000" stroke="none">
<path d="M2906 3563 c-20 -21 -58 -62 -86 -91 -27 -28 -50 -56 -50 -60 0 -5
-15 -29 -34 -53 -44 -57 -51 -90 -30 -135 25 -51 160 -183 310 -303 177 -141
234 -190 234 -204 -1 -15 -145 -149 -180 -167 -14 -7 -45 -33 -70 -59 -25 -25
-62 -59 -83 -74 -57 -43 -87 -117 -81 -196 2 -35 11 -75 18 -89 15 -30 68 -75
166 -141 36 -24 113 -84 172 -133 89 -74 106 -93 99 -107 -5 -9 -40 -46 -78
-82 -37 -35 -122 -121 -189 -189 -66 -69 -150 -153 -187 -187 -71 -66 -122
-151 -112 -184 6 -18 80 -99 197 -216 29 -28 69 -57 90 -64 35 -11 40 -10 91
21 30 18 100 78 156 134 482 483 700 708 710 734 12 29 10 38 -39 137 -34 70
-62 112 -79 123 -27 17 -60 44 -215 177 -44 39 -95 80 -111 93 l-30 22 90 86
c50 48 138 127 197 176 133 111 154 155 104 228 -12 19 -29 53 -36 75 -21 68
-60 113 -195 228 -71 60 -139 120 -150 132 -11 12 -58 50 -105 84 -81 60 -257
209 -306 259 -22 23 -110 62 -138 62 -8 0 -31 -17 -50 -37z"/>
<path d="M2136 3325 c-36 -25 -122 -72 -190 -104 -69 -33 -140 -70 -158 -84
-58 -44 -460 -240 -643 -313 -33 -14 -116 -53 -185 -88 -138 -71 -457 -209
-523 -227 -55 -15 -106 -62 -173 -160 -54 -80 -54 -80 -38 -111 11 -22 14 -43
9 -77 -11 -76 -9 -142 6 -225 13 -75 16 -80 44 -88 17 -5 88 -10 160 -11 136
-4 161 -10 224 -57 19 -14 51 -34 72 -45 153 -80 223 -121 269 -155 30 -22 57
-40 61 -40 4 0 31 -19 61 -43 29 -24 139 -91 243 -149 105 -58 247 -139 317
-180 77 -46 189 -100 284 -137 l157 -62 86 22 c65 17 100 33 144 66 33 24 70
43 83 43 15 0 40 16 65 41 22 22 55 47 72 54 18 7 47 29 65 48 l33 34 -7 89
-7 89 -46 44 c-25 23 -61 57 -78 73 -44 41 -256 142 -337 161 -40 9 -96 33
-143 61 -43 26 -158 87 -256 137 -98 50 -195 105 -215 123 -20 18 -61 45 -89
61 -29 15 -53 31 -53 34 0 11 135 79 240 121 58 23 143 61 190 85 47 24 114
55 150 70 81 33 104 43 320 148 96 47 184 88 195 91 12 3 38 27 59 52 36 43
38 49 33 92 -7 54 -39 133 -85 212 -17 30 -32 63 -32 72 0 9 -11 34 -25 54
-14 21 -28 49 -32 63 -6 25 -43 79 -92 134 -23 25 -31 27 -97 27 -69 0 -74 -2
-138 -45z"/>
</g>
</svg>
